<mxfile host="app.diagrams.net" modified="2024-05-24T17:25:10.405Z" agent="Mozilla/5.0 (Windows NT 10.0; Win64; x64) AppleWebKit/537.36 (KHTML, like Gecko) Chrome/124.0.0.0 Safari/537.36" etag="0UCODQj8oL4_4U-Bhmqt" version="24.4.8" type="github">
  <diagram id="J299OrNDrJW-YTR5PU5g" name="Page-1">
    <mxGraphModel dx="2474" dy="1616" grid="1" gridSize="10" guides="1" tooltips="1" connect="1" arrows="1" fold="1" page="1" pageScale="0.5" pageWidth="850" pageHeight="1100" math="0" shadow="0">
      <root>
        <mxCell id="0" />
        <mxCell id="1" parent="0" />
        <mxCell id="KmuFEiy8gwxwUrOHWcom-100" value="" style="rounded=0;whiteSpace=wrap;html=1;fillColor=#EDEDED;" parent="1" vertex="1">
          <mxGeometry x="790" y="669" width="509" height="280" as="geometry" />
        </mxCell>
        <mxCell id="KmuFEiy8gwxwUrOHWcom-98" value="" style="rounded=0;whiteSpace=wrap;html=1;fillColor=#EDEDED;" parent="1" vertex="1">
          <mxGeometry x="784" y="-60" width="700" height="570" as="geometry" />
        </mxCell>
        <mxCell id="KmuFEiy8gwxwUrOHWcom-96" value="" style="rounded=0;whiteSpace=wrap;html=1;fillColor=#EDEDED;" parent="1" vertex="1">
          <mxGeometry x="139" y="-60" width="470" height="810" as="geometry" />
        </mxCell>
        <mxCell id="KmuFEiy8gwxwUrOHWcom-123" style="edgeStyle=orthogonalEdgeStyle;rounded=0;orthogonalLoop=1;jettySize=auto;html=1;entryX=0;entryY=0.107;entryDx=0;entryDy=0;entryPerimeter=0;" parent="1" source="KmuFEiy8gwxwUrOHWcom-1" target="KmuFEiy8gwxwUrOHWcom-4" edge="1">
          <mxGeometry relative="1" as="geometry" />
        </mxCell>
        <mxCell id="KmuFEiy8gwxwUrOHWcom-1" value="VAOS web" style="rounded=0;whiteSpace=wrap;html=1;" parent="1" vertex="1">
          <mxGeometry x="189" y="40" width="120" height="60" as="geometry" />
        </mxCell>
        <mxCell id="KmuFEiy8gwxwUrOHWcom-121" style="edgeStyle=orthogonalEdgeStyle;rounded=0;orthogonalLoop=1;jettySize=auto;html=1;entryX=0.008;entryY=0.321;entryDx=0;entryDy=0;entryPerimeter=0;" parent="1" source="KmuFEiy8gwxwUrOHWcom-2" target="KmuFEiy8gwxwUrOHWcom-4" edge="1">
          <mxGeometry relative="1" as="geometry" />
        </mxCell>
        <mxCell id="KmuFEiy8gwxwUrOHWcom-2" value="Dashboard" style="rounded=0;whiteSpace=wrap;html=1;" parent="1" vertex="1">
          <mxGeometry x="189" y="160" width="120" height="60" as="geometry" />
        </mxCell>
        <mxCell id="KmuFEiy8gwxwUrOHWcom-89" style="edgeStyle=orthogonalEdgeStyle;rounded=0;orthogonalLoop=1;jettySize=auto;html=1;entryX=0;entryY=0.536;entryDx=0;entryDy=0;entryPerimeter=0;" parent="1" source="KmuFEiy8gwxwUrOHWcom-3" target="KmuFEiy8gwxwUrOHWcom-4" edge="1">
          <mxGeometry relative="1" as="geometry">
            <mxPoint x="419" y="261" as="targetPoint" />
          </mxGeometry>
        </mxCell>
        <mxCell id="KmuFEiy8gwxwUrOHWcom-3" value="Flagship mobile app" style="rounded=0;whiteSpace=wrap;html=1;" parent="1" vertex="1">
          <mxGeometry x="-31" y="280" width="120" height="60" as="geometry" />
        </mxCell>
        <mxCell id="KmuFEiy8gwxwUrOHWcom-90" style="edgeStyle=orthogonalEdgeStyle;rounded=0;orthogonalLoop=1;jettySize=auto;html=1;entryX=0;entryY=0.5;entryDx=0;entryDy=0;" parent="1" source="KmuFEiy8gwxwUrOHWcom-4" target="KmuFEiy8gwxwUrOHWcom-22" edge="1">
          <mxGeometry relative="1" as="geometry">
            <Array as="points">
              <mxPoint x="589" y="285" />
              <mxPoint x="589" y="285" />
            </Array>
          </mxGeometry>
        </mxCell>
        <mxCell id="KmuFEiy8gwxwUrOHWcom-91" style="edgeStyle=orthogonalEdgeStyle;rounded=0;orthogonalLoop=1;jettySize=auto;html=1;entryX=0;entryY=0.5;entryDx=0;entryDy=0;exitX=1;exitY=0.5;exitDx=0;exitDy=0;" parent="1" source="r6deMkh1V9EVogIIxijR-24" target="KmuFEiy8gwxwUrOHWcom-60" edge="1">
          <mxGeometry relative="1" as="geometry">
            <Array as="points">
              <mxPoint x="760" y="200" />
              <mxPoint x="760" y="200" />
            </Array>
            <mxPoint x="760" y="120" as="sourcePoint" />
          </mxGeometry>
        </mxCell>
        <mxCell id="KmuFEiy8gwxwUrOHWcom-93" style="edgeStyle=orthogonalEdgeStyle;rounded=0;orthogonalLoop=1;jettySize=auto;html=1;entryX=0;entryY=0.5;entryDx=0;entryDy=0;" parent="1" source="KmuFEiy8gwxwUrOHWcom-4" target="KmuFEiy8gwxwUrOHWcom-26" edge="1">
          <mxGeometry relative="1" as="geometry">
            <Array as="points">
              <mxPoint x="629" y="455" />
              <mxPoint x="629" y="455" />
            </Array>
          </mxGeometry>
        </mxCell>
        <mxCell id="KmuFEiy8gwxwUrOHWcom-94" style="edgeStyle=orthogonalEdgeStyle;rounded=0;orthogonalLoop=1;jettySize=auto;html=1;entryX=0;entryY=0.75;entryDx=0;entryDy=0;exitX=0.987;exitY=0.939;exitDx=0;exitDy=0;exitPerimeter=0;" parent="1" source="KmuFEiy8gwxwUrOHWcom-4" target="KmuFEiy8gwxwUrOHWcom-18" edge="1">
          <mxGeometry relative="1" as="geometry">
            <Array as="points">
              <mxPoint x="719" y="648" />
              <mxPoint x="719" y="774" />
            </Array>
          </mxGeometry>
        </mxCell>
        <mxCell id="KmuFEiy8gwxwUrOHWcom-108" style="edgeStyle=orthogonalEdgeStyle;rounded=0;orthogonalLoop=1;jettySize=auto;html=1;entryX=0;entryY=0.5;entryDx=0;entryDy=0;" parent="1" source="KmuFEiy8gwxwUrOHWcom-4" target="KmuFEiy8gwxwUrOHWcom-109" edge="1">
          <mxGeometry relative="1" as="geometry">
            <mxPoint x="679" y="-260" as="targetPoint" />
            <Array as="points">
              <mxPoint x="479" y="-170" />
            </Array>
          </mxGeometry>
        </mxCell>
        <mxCell id="KmuFEiy8gwxwUrOHWcom-116" style="edgeStyle=orthogonalEdgeStyle;rounded=0;orthogonalLoop=1;jettySize=auto;html=1;entryX=0;entryY=0.5;entryDx=0;entryDy=0;" parent="1" source="KmuFEiy8gwxwUrOHWcom-4" target="KmuFEiy8gwxwUrOHWcom-115" edge="1">
          <mxGeometry relative="1" as="geometry">
            <Array as="points">
              <mxPoint x="579" y="370" />
              <mxPoint x="579" y="370" />
            </Array>
          </mxGeometry>
        </mxCell>
        <mxCell id="KmuFEiy8gwxwUrOHWcom-119" style="edgeStyle=orthogonalEdgeStyle;rounded=0;orthogonalLoop=1;jettySize=auto;html=1;entryX=0.5;entryY=0;entryDx=0;entryDy=0;exitX=0.303;exitY=1;exitDx=0;exitDy=0;exitPerimeter=0;" parent="1" source="KmuFEiy8gwxwUrOHWcom-4" target="KmuFEiy8gwxwUrOHWcom-38" edge="1">
          <mxGeometry relative="1" as="geometry" />
        </mxCell>
        <mxCell id="KmuFEiy8gwxwUrOHWcom-120" style="edgeStyle=orthogonalEdgeStyle;rounded=0;orthogonalLoop=1;jettySize=auto;html=1;entryX=0.5;entryY=0;entryDx=0;entryDy=0;exitX=0.75;exitY=1;exitDx=0;exitDy=0;" parent="1" source="KmuFEiy8gwxwUrOHWcom-4" target="KmuFEiy8gwxwUrOHWcom-13" edge="1">
          <mxGeometry relative="1" as="geometry">
            <Array as="points">
              <mxPoint x="509" y="740" />
              <mxPoint x="540" y="740" />
            </Array>
          </mxGeometry>
        </mxCell>
        <mxCell id="KmuFEiy8gwxwUrOHWcom-4" value="vets-api" style="rounded=1;whiteSpace=wrap;html=1;" parent="1" vertex="1">
          <mxGeometry x="419" y="10" width="120" height="680" as="geometry" />
        </mxCell>
        <mxCell id="KmuFEiy8gwxwUrOHWcom-13" value="PPMS" style="strokeWidth=2;html=1;shape=datastore;whiteSpace=wrap;" parent="1" vertex="1">
          <mxGeometry x="500" y="794" width="80" height="80" as="geometry" />
        </mxCell>
        <mxCell id="r6deMkh1V9EVogIIxijR-12" style="edgeStyle=orthogonalEdgeStyle;rounded=0;orthogonalLoop=1;jettySize=auto;html=1;exitX=1;exitY=0.5;exitDx=0;exitDy=0;entryX=0;entryY=0.5;entryDx=0;entryDy=0;" edge="1" parent="1" source="KmuFEiy8gwxwUrOHWcom-18" target="r6deMkh1V9EVogIIxijR-4">
          <mxGeometry relative="1" as="geometry" />
        </mxCell>
        <mxCell id="KmuFEiy8gwxwUrOHWcom-18" value="Facilities API" style="rounded=1;whiteSpace=wrap;html=1;" parent="1" vertex="1">
          <mxGeometry x="899" y="729" width="120" height="60" as="geometry" />
        </mxCell>
        <mxCell id="KmuFEiy8gwxwUrOHWcom-102" style="edgeStyle=orthogonalEdgeStyle;rounded=0;orthogonalLoop=1;jettySize=auto;html=1;entryX=0.5;entryY=1;entryDx=0;entryDy=0;" parent="1" source="KmuFEiy8gwxwUrOHWcom-19" target="KmuFEiy8gwxwUrOHWcom-18" edge="1">
          <mxGeometry relative="1" as="geometry" />
        </mxCell>
        <mxCell id="KmuFEiy8gwxwUrOHWcom-118" style="edgeStyle=orthogonalEdgeStyle;rounded=0;orthogonalLoop=1;jettySize=auto;html=1;entryX=0.5;entryY=0;entryDx=0;entryDy=0;" parent="1" source="KmuFEiy8gwxwUrOHWcom-19" target="KmuFEiy8gwxwUrOHWcom-40" edge="1">
          <mxGeometry relative="1" as="geometry">
            <Array as="points">
              <mxPoint x="959" y="989" />
              <mxPoint x="959" y="989" />
            </Array>
          </mxGeometry>
        </mxCell>
        <mxCell id="KmuFEiy8gwxwUrOHWcom-19" value="Community care eligibility API" style="rounded=1;whiteSpace=wrap;html=1;" parent="1" vertex="1">
          <mxGeometry x="899" y="829" width="120" height="60" as="geometry" />
        </mxCell>
        <mxCell id="KmuFEiy8gwxwUrOHWcom-81" style="edgeStyle=orthogonalEdgeStyle;rounded=0;orthogonalLoop=1;jettySize=auto;html=1;entryX=0;entryY=0.25;entryDx=0;entryDy=0;exitX=0;exitY=0.75;exitDx=0;exitDy=0;" parent="1" source="KmuFEiy8gwxwUrOHWcom-22" target="KmuFEiy8gwxwUrOHWcom-18" edge="1">
          <mxGeometry relative="1" as="geometry">
            <Array as="points">
              <mxPoint x="810" y="300" />
              <mxPoint x="810" y="744" />
            </Array>
          </mxGeometry>
        </mxCell>
        <mxCell id="KmuFEiy8gwxwUrOHWcom-144" style="edgeStyle=orthogonalEdgeStyle;rounded=0;orthogonalLoop=1;jettySize=auto;html=1;entryX=0;entryY=0.5;entryDx=0;entryDy=0;" parent="1" source="KmuFEiy8gwxwUrOHWcom-22" target="KmuFEiy8gwxwUrOHWcom-24" edge="1">
          <mxGeometry relative="1" as="geometry">
            <Array as="points">
              <mxPoint x="1049" y="280" />
              <mxPoint x="1049" y="303" />
            </Array>
          </mxGeometry>
        </mxCell>
        <mxCell id="KmuFEiy8gwxwUrOHWcom-22" value="mobile facility service" style="rounded=1;whiteSpace=wrap;html=1;" parent="1" vertex="1">
          <mxGeometry x="834" y="255" width="120" height="60" as="geometry" />
        </mxCell>
        <mxCell id="KmuFEiy8gwxwUrOHWcom-85" style="edgeStyle=orthogonalEdgeStyle;rounded=0;orthogonalLoop=1;jettySize=auto;html=1;entryX=0;entryY=0.5;entryDx=0;entryDy=0;" parent="1" source="KmuFEiy8gwxwUrOHWcom-24" target="KmuFEiy8gwxwUrOHWcom-25" edge="1">
          <mxGeometry relative="1" as="geometry">
            <Array as="points">
              <mxPoint x="1294" y="313" />
              <mxPoint x="1294" y="313" />
            </Array>
          </mxGeometry>
        </mxCell>
        <mxCell id="KmuFEiy8gwxwUrOHWcom-24" value="cdw service" style="rounded=1;whiteSpace=wrap;html=1;" parent="1" vertex="1">
          <mxGeometry x="1144" y="273" width="120" height="60" as="geometry" />
        </mxCell>
        <mxCell id="KmuFEiy8gwxwUrOHWcom-25" value="CDW" style="strokeWidth=2;html=1;shape=datastore;whiteSpace=wrap;" parent="1" vertex="1">
          <mxGeometry x="1384" y="273" width="80" height="80" as="geometry" />
        </mxCell>
        <mxCell id="KmuFEiy8gwxwUrOHWcom-71" style="edgeStyle=orthogonalEdgeStyle;rounded=0;orthogonalLoop=1;jettySize=auto;html=1;entryX=0;entryY=0.5;entryDx=0;entryDy=0;exitX=0;exitY=0.75;exitDx=0;exitDy=0;" parent="1" source="KmuFEiy8gwxwUrOHWcom-26" target="KmuFEiy8gwxwUrOHWcom-19" edge="1">
          <mxGeometry relative="1" as="geometry">
            <Array as="points">
              <mxPoint x="770" y="470" />
              <mxPoint x="770" y="859" />
            </Array>
            <mxPoint x="830" y="470" as="sourcePoint" />
          </mxGeometry>
        </mxCell>
        <mxCell id="KmuFEiy8gwxwUrOHWcom-26" value="mobile cce service" style="rounded=1;whiteSpace=wrap;html=1;" parent="1" vertex="1">
          <mxGeometry x="834" y="425" width="120" height="60" as="geometry" />
        </mxCell>
        <mxCell id="KmuFEiy8gwxwUrOHWcom-148" style="edgeStyle=orthogonalEdgeStyle;rounded=0;orthogonalLoop=1;jettySize=auto;html=1;entryX=0;entryY=0.25;entryDx=0;entryDy=0;exitX=0.582;exitY=0.976;exitDx=0;exitDy=0;exitPerimeter=0;" parent="1" source="KmuFEiy8gwxwUrOHWcom-29" target="KmuFEiy8gwxwUrOHWcom-24" edge="1">
          <mxGeometry relative="1" as="geometry">
            <Array as="points">
              <mxPoint x="1064" y="288" />
            </Array>
            <mxPoint x="1064" y="236" as="sourcePoint" />
            <mxPoint x="1144" y="294" as="targetPoint" />
          </mxGeometry>
        </mxCell>
        <mxCell id="KmuFEiy8gwxwUrOHWcom-150" style="edgeStyle=orthogonalEdgeStyle;rounded=0;orthogonalLoop=1;jettySize=auto;html=1;entryX=0;entryY=0.5;entryDx=0;entryDy=0;exitX=0.5;exitY=0;exitDx=0;exitDy=0;" parent="1" source="KmuFEiy8gwxwUrOHWcom-29" target="KmuFEiy8gwxwUrOHWcom-34" edge="1">
          <mxGeometry relative="1" as="geometry">
            <Array as="points">
              <mxPoint x="1054" y="100" />
              <mxPoint x="1124" y="100" />
              <mxPoint x="1124" y="40" />
            </Array>
          </mxGeometry>
        </mxCell>
        <mxCell id="KmuFEiy8gwxwUrOHWcom-152" style="edgeStyle=orthogonalEdgeStyle;rounded=0;orthogonalLoop=1;jettySize=auto;html=1;exitX=0.75;exitY=0;exitDx=0;exitDy=0;entryX=0;entryY=0.5;entryDx=0;entryDy=0;" parent="1" source="KmuFEiy8gwxwUrOHWcom-29" target="KmuFEiy8gwxwUrOHWcom-136" edge="1">
          <mxGeometry relative="1" as="geometry" />
        </mxCell>
        <mxCell id="KmuFEiy8gwxwUrOHWcom-153" style="edgeStyle=orthogonalEdgeStyle;rounded=0;orthogonalLoop=1;jettySize=auto;html=1;exitX=1;exitY=0.5;exitDx=0;exitDy=0;entryX=0;entryY=0.5;entryDx=0;entryDy=0;" parent="1" source="KmuFEiy8gwxwUrOHWcom-29" target="KmuFEiy8gwxwUrOHWcom-35" edge="1">
          <mxGeometry relative="1" as="geometry" />
        </mxCell>
        <mxCell id="r6deMkh1V9EVogIIxijR-19" style="edgeStyle=orthogonalEdgeStyle;rounded=0;orthogonalLoop=1;jettySize=auto;html=1;exitX=0.25;exitY=1;exitDx=0;exitDy=0;entryX=0;entryY=0.5;entryDx=0;entryDy=0;" edge="1" parent="1" source="KmuFEiy8gwxwUrOHWcom-29" target="r6deMkh1V9EVogIIxijR-17">
          <mxGeometry relative="1" as="geometry" />
        </mxCell>
        <mxCell id="KmuFEiy8gwxwUrOHWcom-29" value="mobile appointment service v2" style="rounded=1;whiteSpace=wrap;html=1;" parent="1" vertex="1">
          <mxGeometry x="994" y="170" width="120" height="60" as="geometry" />
        </mxCell>
        <mxCell id="KmuFEiy8gwxwUrOHWcom-32" value="VistA" style="strokeWidth=2;html=1;shape=datastore;whiteSpace=wrap;" parent="1" vertex="1">
          <mxGeometry x="1529" y="160" width="80" height="80" as="geometry" />
        </mxCell>
        <mxCell id="KmuFEiy8gwxwUrOHWcom-33" value="TMP" style="strokeWidth=2;html=1;shape=datastore;whiteSpace=wrap;" parent="1" vertex="1">
          <mxGeometry x="1114" y="-207" width="80" height="80" as="geometry" />
        </mxCell>
        <mxCell id="KmuFEiy8gwxwUrOHWcom-77" style="edgeStyle=orthogonalEdgeStyle;rounded=0;orthogonalLoop=1;jettySize=auto;html=1;entryX=0;entryY=0.5;entryDx=0;entryDy=0;" parent="1" source="KmuFEiy8gwxwUrOHWcom-34" target="KmuFEiy8gwxwUrOHWcom-37" edge="1">
          <mxGeometry relative="1" as="geometry" />
        </mxCell>
        <mxCell id="KmuFEiy8gwxwUrOHWcom-103" style="edgeStyle=orthogonalEdgeStyle;rounded=0;orthogonalLoop=1;jettySize=auto;html=1;entryX=0.5;entryY=1;entryDx=0;entryDy=0;exitX=0.425;exitY=0;exitDx=0;exitDy=0;exitPerimeter=0;" parent="1" source="KmuFEiy8gwxwUrOHWcom-34" target="KmuFEiy8gwxwUrOHWcom-33" edge="1">
          <mxGeometry relative="1" as="geometry">
            <Array as="points">
              <mxPoint x="1195" y="-90" />
              <mxPoint x="1154" y="-90" />
            </Array>
          </mxGeometry>
        </mxCell>
        <mxCell id="KmuFEiy8gwxwUrOHWcom-34" value="video visit service" style="rounded=1;whiteSpace=wrap;html=1;" parent="1" vertex="1">
          <mxGeometry x="1144" y="10" width="120" height="60" as="geometry" />
        </mxCell>
        <mxCell id="KmuFEiy8gwxwUrOHWcom-74" style="edgeStyle=orthogonalEdgeStyle;rounded=0;orthogonalLoop=1;jettySize=auto;html=1;entryX=0;entryY=0.5;entryDx=0;entryDy=0;" parent="1" source="KmuFEiy8gwxwUrOHWcom-35" target="KmuFEiy8gwxwUrOHWcom-36" edge="1">
          <mxGeometry relative="1" as="geometry" />
        </mxCell>
        <mxCell id="KmuFEiy8gwxwUrOHWcom-35" value="VistA scheduling provider" style="rounded=1;whiteSpace=wrap;html=1;" parent="1" vertex="1">
          <mxGeometry x="1144" y="170" width="120" height="60" as="geometry" />
        </mxCell>
        <mxCell id="KmuFEiy8gwxwUrOHWcom-64" style="edgeStyle=orthogonalEdgeStyle;rounded=0;orthogonalLoop=1;jettySize=auto;html=1;entryX=0;entryY=0.5;entryDx=0;entryDy=0;" parent="1" source="KmuFEiy8gwxwUrOHWcom-36" target="KmuFEiy8gwxwUrOHWcom-32" edge="1">
          <mxGeometry relative="1" as="geometry" />
        </mxCell>
        <mxCell id="KmuFEiy8gwxwUrOHWcom-36" value="Acheron" style="rounded=1;whiteSpace=wrap;html=1;" parent="1" vertex="1">
          <mxGeometry x="1314" y="170" width="120" height="60" as="geometry" />
        </mxCell>
        <mxCell id="KmuFEiy8gwxwUrOHWcom-37" value="VCM" style="strokeWidth=2;html=1;shape=datastore;whiteSpace=wrap;" parent="1" vertex="1">
          <mxGeometry x="1384" width="80" height="80" as="geometry" />
        </mxCell>
        <mxCell id="KmuFEiy8gwxwUrOHWcom-38" value="VA Profile" style="strokeWidth=2;html=1;shape=datastore;whiteSpace=wrap;" parent="1" vertex="1">
          <mxGeometry x="392" y="794" width="80" height="80" as="geometry" />
        </mxCell>
        <mxCell id="KmuFEiy8gwxwUrOHWcom-40" value="ESR" style="strokeWidth=2;html=1;shape=datastore;whiteSpace=wrap;" parent="1" vertex="1">
          <mxGeometry x="919" y="999" width="80" height="80" as="geometry" />
        </mxCell>
        <mxCell id="KmuFEiy8gwxwUrOHWcom-57" value="VistA" style="strokeWidth=2;html=1;shape=datastore;whiteSpace=wrap;" parent="1" vertex="1">
          <mxGeometry x="1539" y="170" width="80" height="80" as="geometry" />
        </mxCell>
        <mxCell id="KmuFEiy8gwxwUrOHWcom-58" value="VistA" style="strokeWidth=2;html=1;shape=datastore;whiteSpace=wrap;" parent="1" vertex="1">
          <mxGeometry x="1549" y="180" width="80" height="80" as="geometry" />
        </mxCell>
        <mxCell id="KmuFEiy8gwxwUrOHWcom-68" style="edgeStyle=orthogonalEdgeStyle;rounded=0;orthogonalLoop=1;jettySize=auto;html=1;entryX=0.5;entryY=0;entryDx=0;entryDy=0;" parent="1" source="KmuFEiy8gwxwUrOHWcom-60" target="KmuFEiy8gwxwUrOHWcom-22" edge="1">
          <mxGeometry relative="1" as="geometry" />
        </mxCell>
        <mxCell id="KmuFEiy8gwxwUrOHWcom-135" style="edgeStyle=orthogonalEdgeStyle;rounded=0;orthogonalLoop=1;jettySize=auto;html=1;exitX=1;exitY=0.5;exitDx=0;exitDy=0;" parent="1" source="KmuFEiy8gwxwUrOHWcom-60" target="KmuFEiy8gwxwUrOHWcom-29" edge="1">
          <mxGeometry relative="1" as="geometry" />
        </mxCell>
        <mxCell id="KmuFEiy8gwxwUrOHWcom-154" style="edgeStyle=orthogonalEdgeStyle;rounded=0;orthogonalLoop=1;jettySize=auto;html=1;exitX=0.75;exitY=1;exitDx=0;exitDy=0;entryX=0;entryY=0.75;entryDx=0;entryDy=0;" parent="1" source="KmuFEiy8gwxwUrOHWcom-60" target="KmuFEiy8gwxwUrOHWcom-24" edge="1">
          <mxGeometry relative="1" as="geometry">
            <Array as="points">
              <mxPoint x="924" y="240" />
              <mxPoint x="994" y="240" />
              <mxPoint x="994" y="318" />
            </Array>
          </mxGeometry>
        </mxCell>
        <mxCell id="KmuFEiy8gwxwUrOHWcom-60" value="vaos service" style="rounded=1;whiteSpace=wrap;html=1;" parent="1" vertex="1">
          <mxGeometry x="834" y="170" width="120" height="60" as="geometry" />
        </mxCell>
        <mxCell id="KmuFEiy8gwxwUrOHWcom-97" value="Veteran Services Platform" style="text;html=1;strokeColor=none;fillColor=none;align=center;verticalAlign=middle;whiteSpace=wrap;rounded=0;" parent="1" vertex="1">
          <mxGeometry x="149" y="-50" width="150" height="20" as="geometry" />
        </mxCell>
        <mxCell id="KmuFEiy8gwxwUrOHWcom-99" value="VAMF/MAP" style="text;html=1;strokeColor=none;fillColor=none;align=center;verticalAlign=middle;whiteSpace=wrap;rounded=0;" parent="1" vertex="1">
          <mxGeometry x="792" y="-50" width="108" height="20" as="geometry" />
        </mxCell>
        <mxCell id="KmuFEiy8gwxwUrOHWcom-101" value="Lighthouse" style="text;html=1;strokeColor=none;fillColor=none;align=center;verticalAlign=middle;whiteSpace=wrap;rounded=0;" parent="1" vertex="1">
          <mxGeometry x="999" y="679" width="150" height="20" as="geometry" />
        </mxCell>
        <mxCell id="KmuFEiy8gwxwUrOHWcom-110" style="edgeStyle=orthogonalEdgeStyle;rounded=0;orthogonalLoop=1;jettySize=auto;html=1;entryX=0.5;entryY=1;entryDx=0;entryDy=0;" parent="1" source="KmuFEiy8gwxwUrOHWcom-107" target="KmuFEiy8gwxwUrOHWcom-109" edge="1">
          <mxGeometry relative="1" as="geometry" />
        </mxCell>
        <mxCell id="KmuFEiy8gwxwUrOHWcom-107" value="mobile mvi service" style="rounded=1;whiteSpace=wrap;html=1;" parent="1" vertex="1">
          <mxGeometry x="994" y="10" width="120" height="60" as="geometry" />
        </mxCell>
        <mxCell id="KmuFEiy8gwxwUrOHWcom-109" value="MPI" style="strokeWidth=2;html=1;shape=datastore;whiteSpace=wrap;" parent="1" vertex="1">
          <mxGeometry x="870" y="-210" width="80" height="80" as="geometry" />
        </mxCell>
        <mxCell id="KmuFEiy8gwxwUrOHWcom-147" style="edgeStyle=orthogonalEdgeStyle;rounded=0;orthogonalLoop=1;jettySize=auto;html=1;entryX=0;entryY=0.75;entryDx=0;entryDy=0;" parent="1" source="KmuFEiy8gwxwUrOHWcom-115" target="KmuFEiy8gwxwUrOHWcom-107" edge="1">
          <mxGeometry relative="1" as="geometry" />
        </mxCell>
        <mxCell id="KmuFEiy8gwxwUrOHWcom-115" value="user service" style="rounded=1;whiteSpace=wrap;html=1;" parent="1" vertex="1">
          <mxGeometry x="834" y="340" width="120" height="60" as="geometry" />
        </mxCell>
        <mxCell id="KmuFEiy8gwxwUrOHWcom-125" value="" style="strokeWidth=2;html=1;shape=datastore;whiteSpace=wrap;" parent="1" vertex="1">
          <mxGeometry x="-220" y="-160" width="60" height="60" as="geometry" />
        </mxCell>
        <mxCell id="KmuFEiy8gwxwUrOHWcom-126" value="Service/system that stores data" style="text;html=1;strokeColor=none;fillColor=none;align=center;verticalAlign=middle;whiteSpace=wrap;rounded=0;" parent="1" vertex="1">
          <mxGeometry x="-140" y="-150" width="190" height="20" as="geometry" />
        </mxCell>
        <mxCell id="KmuFEiy8gwxwUrOHWcom-127" value="" style="rounded=1;whiteSpace=wrap;html=1;" parent="1" vertex="1">
          <mxGeometry x="-230" y="-80" width="80" height="40" as="geometry" />
        </mxCell>
        <mxCell id="KmuFEiy8gwxwUrOHWcom-128" value="Service" style="text;html=1;strokeColor=none;fillColor=none;align=center;verticalAlign=middle;whiteSpace=wrap;rounded=0;" parent="1" vertex="1">
          <mxGeometry x="-140" y="-70" width="60" height="20" as="geometry" />
        </mxCell>
        <mxCell id="KmuFEiy8gwxwUrOHWcom-129" value="" style="rounded=0;whiteSpace=wrap;html=1;fillColor=#EDEDED;" parent="1" vertex="1">
          <mxGeometry x="-230" y="-20" width="80" height="60" as="geometry" />
        </mxCell>
        <mxCell id="KmuFEiy8gwxwUrOHWcom-130" value="Platform" style="text;html=1;strokeColor=none;fillColor=none;align=center;verticalAlign=middle;whiteSpace=wrap;rounded=0;" parent="1" vertex="1">
          <mxGeometry x="-130" y="-20" width="50" height="20" as="geometry" />
        </mxCell>
        <mxCell id="KmuFEiy8gwxwUrOHWcom-131" value="" style="rounded=0;whiteSpace=wrap;html=1;" parent="1" vertex="1">
          <mxGeometry x="-230" y="60" width="80" height="40" as="geometry" />
        </mxCell>
        <mxCell id="KmuFEiy8gwxwUrOHWcom-132" value="Veteran facing application" style="text;html=1;strokeColor=none;fillColor=none;align=center;verticalAlign=middle;whiteSpace=wrap;rounded=0;" parent="1" vertex="1">
          <mxGeometry x="-140" y="70" width="160" height="20" as="geometry" />
        </mxCell>
        <mxCell id="KmuFEiy8gwxwUrOHWcom-140" style="edgeStyle=orthogonalEdgeStyle;rounded=0;orthogonalLoop=1;jettySize=auto;html=1;entryX=0;entryY=0.625;entryDx=0;entryDy=0;entryPerimeter=0;" parent="1" source="KmuFEiy8gwxwUrOHWcom-136" target="KmuFEiy8gwxwUrOHWcom-137" edge="1">
          <mxGeometry relative="1" as="geometry" />
        </mxCell>
        <mxCell id="KmuFEiy8gwxwUrOHWcom-136" value="mobile hsrm service" style="rounded=1;whiteSpace=wrap;html=1;" parent="1" vertex="1">
          <mxGeometry x="1144" y="90" width="120" height="60" as="geometry" />
        </mxCell>
        <mxCell id="KmuFEiy8gwxwUrOHWcom-137" value="HSRM" style="strokeWidth=2;html=1;shape=datastore;whiteSpace=wrap;" parent="1" vertex="1">
          <mxGeometry x="1529" y="70" width="80" height="80" as="geometry" />
        </mxCell>
        <mxCell id="r6deMkh1V9EVogIIxijR-1" value="Authenticated Experience" style="rounded=0;whiteSpace=wrap;html=1;" vertex="1" parent="1">
          <mxGeometry x="189" y="365" width="120" height="60" as="geometry" />
        </mxCell>
        <mxCell id="r6deMkh1V9EVogIIxijR-2" style="edgeStyle=orthogonalEdgeStyle;rounded=0;orthogonalLoop=1;jettySize=auto;html=1;entryX=0;entryY=0.107;entryDx=0;entryDy=0;entryPerimeter=0;" edge="1" parent="1">
          <mxGeometry relative="1" as="geometry">
            <mxPoint x="309" y="394.5" as="sourcePoint" />
            <mxPoint x="419" y="394.5" as="targetPoint" />
          </mxGeometry>
        </mxCell>
        <mxCell id="r6deMkh1V9EVogIIxijR-3" value="VAST" style="strokeWidth=2;html=1;shape=datastore;whiteSpace=wrap;" vertex="1" parent="1">
          <mxGeometry x="1189" y="710" width="80" height="80" as="geometry" />
        </mxCell>
        <mxCell id="r6deMkh1V9EVogIIxijR-4" value="CMS" style="strokeWidth=2;html=1;shape=datastore;whiteSpace=wrap;" vertex="1" parent="1">
          <mxGeometry x="1189" y="809" width="80" height="80" as="geometry" />
        </mxCell>
        <mxCell id="r6deMkh1V9EVogIIxijR-10" style="edgeStyle=orthogonalEdgeStyle;rounded=0;orthogonalLoop=1;jettySize=auto;html=1;exitX=1;exitY=0.5;exitDx=0;exitDy=0;entryX=0;entryY=0.613;entryDx=0;entryDy=0;entryPerimeter=0;" edge="1" parent="1" source="KmuFEiy8gwxwUrOHWcom-18" target="r6deMkh1V9EVogIIxijR-3">
          <mxGeometry relative="1" as="geometry">
            <Array as="points">
              <mxPoint x="1059" y="759" />
              <mxPoint x="1059" y="759" />
            </Array>
          </mxGeometry>
        </mxCell>
        <mxCell id="r6deMkh1V9EVogIIxijR-16" value="Oracle&lt;div&gt;Health&lt;/div&gt;" style="strokeWidth=2;html=1;shape=datastore;whiteSpace=wrap;" vertex="1" parent="1">
          <mxGeometry x="1529" y="537" width="80" height="80" as="geometry" />
        </mxCell>
        <mxCell id="r6deMkh1V9EVogIIxijR-21" style="edgeStyle=orthogonalEdgeStyle;rounded=0;orthogonalLoop=1;jettySize=auto;html=1;exitX=1;exitY=0.5;exitDx=0;exitDy=0;entryX=0.5;entryY=0;entryDx=0;entryDy=0;" edge="1" parent="1" source="r6deMkh1V9EVogIIxijR-17" target="r6deMkh1V9EVogIIxijR-16">
          <mxGeometry relative="1" as="geometry" />
        </mxCell>
        <mxCell id="r6deMkh1V9EVogIIxijR-17" value="Cerner Scheduling Provider R/O" style="rounded=1;whiteSpace=wrap;html=1;" vertex="1" parent="1">
          <mxGeometry x="1143" y="380" width="120" height="60" as="geometry" />
        </mxCell>
        <mxCell id="r6deMkh1V9EVogIIxijR-22" value="VCM" style="strokeWidth=2;html=1;shape=datastore;whiteSpace=wrap;" vertex="1" parent="1">
          <mxGeometry x="1214" y="-207" width="80" height="80" as="geometry" />
        </mxCell>
        <mxCell id="r6deMkh1V9EVogIIxijR-23" style="edgeStyle=orthogonalEdgeStyle;rounded=0;orthogonalLoop=1;jettySize=auto;html=1;entryX=0.5;entryY=1;entryDx=0;entryDy=0;exitX=0.5;exitY=0;exitDx=0;exitDy=0;" edge="1" parent="1" source="KmuFEiy8gwxwUrOHWcom-34" target="r6deMkh1V9EVogIIxijR-22">
          <mxGeometry relative="1" as="geometry">
            <Array as="points">
              <mxPoint x="1214" y="10" />
              <mxPoint x="1214" y="-90" />
              <mxPoint x="1255" y="-90" />
              <mxPoint x="1255" y="-127" />
            </Array>
            <mxPoint x="1214" y="20" as="sourcePoint" />
            <mxPoint x="1164" y="-117" as="targetPoint" />
          </mxGeometry>
        </mxCell>
        <mxCell id="r6deMkh1V9EVogIIxijR-24" value="VETSAPI&lt;div&gt;Patient&lt;/div&gt;&lt;div&gt;Gateway&lt;/div&gt;" style="rounded=1;whiteSpace=wrap;html=1;" vertex="1" parent="1">
          <mxGeometry x="638" y="170" width="120" height="60" as="geometry" />
        </mxCell>
        <mxCell id="r6deMkh1V9EVogIIxijR-25" value="" style="endArrow=classic;html=1;rounded=0;exitX=1.008;exitY=0.279;exitDx=0;exitDy=0;exitPerimeter=0;entryX=0;entryY=0.5;entryDx=0;entryDy=0;" edge="1" parent="1" source="KmuFEiy8gwxwUrOHWcom-4" target="r6deMkh1V9EVogIIxijR-24">
          <mxGeometry width="50" height="50" relative="1" as="geometry">
            <mxPoint x="1000" y="370" as="sourcePoint" />
            <mxPoint x="1050" y="320" as="targetPoint" />
          </mxGeometry>
        </mxCell>
        <mxCell id="r6deMkh1V9EVogIIxijR-26" value="Clinical Encounter Service R/W" style="rounded=1;whiteSpace=wrap;html=1;" vertex="1" parent="1">
          <mxGeometry x="834" y="547" width="120" height="60" as="geometry" />
        </mxCell>
        <mxCell id="r6deMkh1V9EVogIIxijR-27" value="Cerner FHIR&lt;div&gt;Adapter&lt;/div&gt;" style="rounded=1;whiteSpace=wrap;html=1;" vertex="1" parent="1">
          <mxGeometry x="1144" y="547" width="120" height="60" as="geometry" />
        </mxCell>
        <mxCell id="r6deMkh1V9EVogIIxijR-28" value="" style="endArrow=classic;html=1;rounded=0;exitX=0.5;exitY=1;exitDx=0;exitDy=0;entryX=0;entryY=0.5;entryDx=0;entryDy=0;edgeStyle=orthogonalEdgeStyle;" edge="1" parent="1" source="r6deMkh1V9EVogIIxijR-24" target="r6deMkh1V9EVogIIxijR-26">
          <mxGeometry width="50" height="50" relative="1" as="geometry">
            <mxPoint x="1000" y="370" as="sourcePoint" />
            <mxPoint x="1050" y="320" as="targetPoint" />
          </mxGeometry>
        </mxCell>
        <mxCell id="r6deMkh1V9EVogIIxijR-29" value="" style="endArrow=classic;html=1;rounded=0;exitX=1;exitY=0.5;exitDx=0;exitDy=0;entryX=0;entryY=0.5;entryDx=0;entryDy=0;" edge="1" parent="1" source="r6deMkh1V9EVogIIxijR-26" target="r6deMkh1V9EVogIIxijR-27">
          <mxGeometry width="50" height="50" relative="1" as="geometry">
            <mxPoint x="1000" y="370" as="sourcePoint" />
            <mxPoint x="1050" y="320" as="targetPoint" />
          </mxGeometry>
        </mxCell>
        <mxCell id="r6deMkh1V9EVogIIxijR-30" value="" style="endArrow=classic;html=1;rounded=0;exitX=1;exitY=0.5;exitDx=0;exitDy=0;entryX=0;entryY=0.5;entryDx=0;entryDy=0;" edge="1" parent="1" source="r6deMkh1V9EVogIIxijR-27" target="r6deMkh1V9EVogIIxijR-16">
          <mxGeometry width="50" height="50" relative="1" as="geometry">
            <mxPoint x="964" y="587" as="sourcePoint" />
            <mxPoint x="1154" y="587" as="targetPoint" />
          </mxGeometry>
        </mxCell>
      </root>
    </mxGraphModel>
  </diagram>
</mxfile>
